# xmcd
# 
# Track frame offsets:
#     182
#     14167
#     29240
#     43337
#     59792
#     76800
#     93177
#     111682
#     129960
#     146752
#     162630
#     175782
#     194217
#     212112
#     231592
#     248000
#     268240
#     286012
#     305360
#     323037
#     339990
# 
# Disc length: 4715
# 
# Revision: 7
# Processed by: cddbd v1.5.2PL0 Copyright (c) Steve Scherf et al.
# Submitted via: BonkEnc v1.0
# 
DISCID=4e126915
DTITLE=Erasure - Pop! 20 Hits
DYEAR=1992
DGENRE=Synthpop
TTITLE0=Who Needs Love (Like That)
TTITLE1=Heavenly Action
TTITLE2=Oh L'amour
TTITLE3=Sometimes
TTITLE4=It Doesn't Have To Be
TTITLE5=Victim Of Love
TTITLE6=The Circus
TTITLE7=Ship Of Fools
TTITLE8=Chains Of Love
TTITLE9=A Little Respect
TTITLE10=Stop!
TTITLE11=Drama!
TTITLE12=You Surround Me
TTITLE13=Blue Savannah
TTITLE14=Star
TTITLE15=Chorus
TTITLE16=Love To Hate You
TTITLE17=Am I Right?
TTITLE18=Breath Of Life
TTITLE19=Take A Chance On Me
TTITLE20=Who Needs Love (Like That) (Hamburg Mix)
EXTD=ID3G: 147 YEAR: 1992
EXTT0=
EXTT1=
EXTT2=
EXTT3=
EXTT4=
EXTT5=
EXTT6=
EXTT7=
EXTT8=
EXTT9=
EXTT10=
EXTT11=
EXTT12=
EXTT13=
EXTT14=
EXTT15=
EXTT16=
EXTT17=
EXTT18=
EXTT19=
EXTT20=
PLAYORDER=
